<?xml version="1.0" encoding="utf-8"?>
<!-- Generator: Adobe Illustrator 17.1.0, SVG Export Plug-In . SVG Version: 6.00 Build 0)  -->
<!DOCTYPE svg PUBLIC "-//W3C//DTD SVG 1.1//EN" "http://www.w3.org/Graphics/SVG/1.1/DTD/svg11.dtd">
<svg version="1.1" id="Layer_1" xmlns="http://www.w3.org/2000/svg" xmlns:xlink="http://www.w3.org/1999/xlink" x="0px" y="0px"
	 viewBox="0 0 20.6 28.5" enable-background="new 0 0 20.6 28.5" xml:space="preserve">
<g id="Rounded_Rectangle_1_31_">
	<g>
		<path fill="#4E4F50" d="M18.7,0H2C0.9,0,0,0.9,0,2v24.5c0,1.1,0.9,2,2,2h16.7c1.1,0,2-0.9,2-2V2C20.6,0.9,19.7,0,18.7,0z M6.9,26
			H2.5v-4.4h4.4V26z M6.9,20.1H2.5v-4.4h4.4V20.1z M6.9,14.2H2.5V9.8h4.4V14.2z M12.8,26H8.3v-4.4h4.4V26z M12.8,20.1H8.3v-4.4h4.4
			V20.1z M12.8,14.2H8.3V9.8h4.4V14.2z M18.2,26h-3.9V15.7h3.9V26z M18.2,14.2h-3.9V9.8h3.9V14.2z M18.2,6.9H2.5V3.4h15.7V6.9z"/>
	</g>
</g>
</svg>
