<?xml version="1.0" encoding="utf-8"?>
<!-- Generator: Adobe Illustrator 17.1.0, SVG Export Plug-In . SVG Version: 6.00 Build 0)  -->
<!DOCTYPE svg PUBLIC "-//W3C//DTD SVG 1.1//EN" "http://www.w3.org/Graphics/SVG/1.1/DTD/svg11.dtd">
<svg version="1.1" id="Layer_1" xmlns="http://www.w3.org/2000/svg" xmlns:xlink="http://www.w3.org/1999/xlink" x="0px" y="0px"
	 viewBox="0 0 34.4 21.6" enable-background="new 0 0 34.4 21.6" xml:space="preserve">
<g id="Ellipse_1_33_">
	<g>
		<path fill="#4E4F50" d="M28.9,9.4c0-0.1,0-0.2,0-0.3c0-5-4.1-9.1-9.1-9.1c-3.6,0-6.7,2.1-8.2,5.2C10.9,4.7,10,4.4,9.1,4.4
			c-2.5,0-4.4,1.9-4.6,4.3C1.9,9.6,0,12.1,0,15c0,3.6,2.8,6.5,6.4,6.6v0h22.1v0c3.3-0.1,5.9-2.8,5.9-6.1C34.4,12.3,32,9.7,28.9,9.4z
			 M28.5,20.6L28.5,20.6l-22.1,0v0C3.4,20.5,1,18,1,15c0-2.7,1.9-5,4.5-5.5c0-0.1,0-0.2,0-0.4c0-2,1.6-3.7,3.7-3.7
			c1.2,0,2.3,0.6,3,1.5c0.9-3.4,4.1-6,7.8-6C24.4,1,28,4.6,28,9.1c0,0.4,0,0.8-0.1,1.2h0.6v0c2.7,0.1,4.9,2.4,4.9,5.1
			C33.4,18.2,31.2,20.5,28.5,20.6z"/>
	</g>
</g>
</svg>
