<?xml version="1.0" encoding="utf-8"?>
<!-- Generator: Adobe Illustrator 17.1.0, SVG Export Plug-In . SVG Version: 6.00 Build 0)  -->
<!DOCTYPE svg PUBLIC "-//W3C//DTD SVG 1.1//EN" "http://www.w3.org/Graphics/SVG/1.1/DTD/svg11.dtd">
<svg version="1.1" id="Layer_1" xmlns="http://www.w3.org/2000/svg" xmlns:xlink="http://www.w3.org/1999/xlink" x="0px" y="0px"
	 viewBox="0 0 29.5 25.5" enable-background="new 0 0 29.5 25.5" xml:space="preserve">
<g id="Rounded_Rectangle_1_29_">
	<g>
		<path fill="#4E4F50" d="M5.9,13.7h-1C2.7,13.7,1,12,1,9.8V4.9C1,2.7,2.7,1,4.9,1h11.8c2.2,0,3.9,1.8,3.9,3.9h1V4.4
			c0-2.4-2-4.4-4.4-4.4H4.4C2,0,0,2,0,4.4v5.9c0,2.4,2,4.4,4.4,4.4l-2,4.9l5.4-3.4V15l-3.4,2.2L5.9,13.7z M25,5.9H13.3
			c-2.4,0-4.4,2-4.4,4.4v5.9c0,2.4,2,4.4,4.4,4.4h5.4l7.8,4.9l-2-4.9H25c2.4,0,4.4-2,4.4-4.4v-5.9C29.5,7.9,27.5,5.9,25,5.9z
			 M28.5,16.2c0,1.9-1.5,3.4-3.4,3.4h-2l1.5,3.4l-5.4-3.4h-5.9c-1.9,0-3.4-1.5-3.4-3.4v-5.9c0-1.9,1.5-3.4,3.4-3.4H25
			c1.9,0,3.4,1.5,3.4,3.4V16.2z"/>
	</g>
</g>
</svg>
