<?xml version="1.0" encoding="utf-8"?>
<!-- Generator: Adobe Illustrator 17.1.0, SVG Export Plug-In . SVG Version: 6.00 Build 0)  -->
<!DOCTYPE svg PUBLIC "-//W3C//DTD SVG 1.1//EN" "http://www.w3.org/Graphics/SVG/1.1/DTD/svg11.dtd">
<svg version="1.1" id="Layer_1" xmlns="http://www.w3.org/2000/svg" xmlns:xlink="http://www.w3.org/1999/xlink" x="0px" y="0px"
	 viewBox="0 0 20.6 20.6" enable-background="new 0 0 20.6 20.6" xml:space="preserve">
<g>
	<path fill-rule="evenodd" clip-rule="evenodd" fill="#4E4F50" d="M20.6,11.8V8.8l-3.4-1c-0.1-0.3-0.2-0.5-0.3-0.8l1.7-3.1L16.6,2
		l-3.1,1.7c-0.2-0.1-0.5-0.2-0.8-0.3l-1-3.4H8.8l-1,3.4C7.6,3.5,7.4,3.6,7.1,3.7L4.1,2L2,4.1l1.7,3.1C3.6,7.4,3.5,7.6,3.4,7.9L0,8.8
		v2.9l3.4,1c0.1,0.3,0.2,0.5,0.3,0.8L2,16.6l2.1,2.1l3.1-1.7c0.2,0.1,0.5,0.2,0.8,0.3l1,3.4h2.9l1-3.4c0.3-0.1,0.5-0.2,0.8-0.3
		l3.1,1.7l2.1-2.1l-1.7-3.1c0.1-0.2,0.2-0.5,0.3-0.8L20.6,11.8z M10.3,13.3c-1.6,0-2.9-1.3-2.9-2.9c0-1.6,1.3-2.9,2.9-2.9
		c1.6,0,2.9,1.3,2.9,2.9C13.3,11.9,11.9,13.3,10.3,13.3z"/>
</g>
</svg>
