<?xml version="1.0" encoding="utf-8"?>
<!-- Generator: Adobe Illustrator 17.1.0, SVG Export Plug-In . SVG Version: 6.00 Build 0)  -->
<!DOCTYPE svg PUBLIC "-//W3C//DTD SVG 1.1//EN" "http://www.w3.org/Graphics/SVG/1.1/DTD/svg11.dtd">
<svg version="1.1" id="Layer_1" xmlns="http://www.w3.org/2000/svg" xmlns:xlink="http://www.w3.org/1999/xlink" x="0px" y="0px"
	 viewBox="0 0 35.4 27.4" enable-background="new 0 0 35.4 27.4" xml:space="preserve">
<g>
	<rect x="3.3" y="3.2" fill="#FFFFFF" width="28.9" height="21.1"/>
	<g>
		<g>
			<g>
				<path fill="#FFFFFF" d="M0.7,6.2C0.3,6.2,0,5.9,0,5.5V0.7C0,0.3,0.3,0,0.7,0h5.4c0.4,0,0.8,0.3,0.8,0.8c0,0.4-0.3,0.7-0.8,0.7
					H1.5v4C1.5,5.9,1.2,6.2,0.7,6.2z"/>
			</g>
			<g>
				<path fill="#FFFFFF" d="M34.7,6.2c-0.4,0-0.8-0.3-0.8-0.8v-4h-4.7c-0.4,0-0.8-0.3-0.8-0.7c0-0.4,0.3-0.8,0.8-0.8h5.4
					c0.4,0,0.8,0.3,0.8,0.8v4.7C35.4,5.9,35.1,6.2,34.7,6.2z"/>
			</g>
		</g>
		<g>
			<g>
				<path fill="#FFFFFF" d="M34.7,27.4h-5.4c-0.4,0-0.8-0.3-0.8-0.8c0-0.4,0.3-0.8,0.8-0.8h4.7v-4c0-0.4,0.3-0.8,0.8-0.8
					c0.4,0,0.8,0.3,0.8,0.8v4.8C35.4,27.1,35.1,27.4,34.7,27.4z"/>
			</g>
			<g>
				<path fill="#FFFFFF" d="M6.2,27.4H0.7c-0.4,0-0.8-0.3-0.8-0.8v-4.8c0-0.4,0.3-0.8,0.8-0.8c0.4,0,0.8,0.3,0.8,0.8v4h4.7
					c0.4,0,0.8,0.3,0.8,0.8C6.9,27.1,6.6,27.4,6.2,27.4z"/>
			</g>
		</g>
	</g>
</g>
</svg>
