<?xml version="1.0" encoding="utf-8"?>
<!-- Generator: Adobe Illustrator 17.1.0, SVG Export Plug-In . SVG Version: 6.00 Build 0)  -->
<!DOCTYPE svg PUBLIC "-//W3C//DTD SVG 1.1//EN" "http://www.w3.org/Graphics/SVG/1.1/DTD/svg11.dtd">
<svg version="1.1" id="Layer_1" xmlns="http://www.w3.org/2000/svg" xmlns:xlink="http://www.w3.org/1999/xlink" x="0px" y="0px"
	 viewBox="0 0 29.4 27" enable-background="new 0 0 29.4 27" xml:space="preserve">
<path fill="#FFFFFF" d="M6.5,27H0.7V8.7h5.7V27z M3.5,6.4L3.5,6.4C1.3,6.4,0,5,0,3.2C0,1.4,1.4,0,3.5,0C5.6,0,6.9,1.4,7,3.2
	C7,5,5.6,6.4,3.5,6.4z M29.4,27h-6.5v-9.5c0-2.5-1-4.2-3.3-4.2c-1.7,0-2.7,1.1-3.1,2.2c-0.2,0.4-0.1,0.9-0.1,1.5V27H10
	c0,0,0.1-16.8,0-18.3h6.4v2.9c0.4-1.3,2.4-3.1,5.7-3.1c4.1,0,7.3,2.6,7.3,8.3V27z"/>
</svg>
