<?xml version="1.0" encoding="utf-8"?>
<!-- Generator: Adobe Illustrator 17.1.0, SVG Export Plug-In . SVG Version: 6.00 Build 0)  -->
<!DOCTYPE svg PUBLIC "-//W3C//DTD SVG 1.1//EN" "http://www.w3.org/Graphics/SVG/1.1/DTD/svg11.dtd">
<svg version="1.1" id="Layer_1" xmlns="http://www.w3.org/2000/svg" xmlns:xlink="http://www.w3.org/1999/xlink" x="0px" y="0px"
	 viewBox="0 0 39.1 39.1" enable-background="new 0 0 39.1 39.1" xml:space="preserve">
<g>
	<g>
		<g>
			<path fill="#FFFFFF" d="M5.7,38.1C3.1,38.1,1,36,1,33.4V5.7C1,3.1,3.1,1,5.7,1h27.7c2.6,0,4.7,2.1,4.7,4.7v27.7
				c0,2.6-2.1,4.7-4.7,4.7H5.7z"/>
			<path fill="#A6A7A7" d="M33.4,2c2,0,3.7,1.6,3.7,3.7v27.7c0,2-1.6,3.7-3.7,3.7H5.7c-2,0-3.7-1.6-3.7-3.7V5.7C2,3.6,3.6,2,5.7,2
				H33.4 M33.4,0H5.7C2.5,0,0,2.5,0,5.7v27.7c0,3.1,2.5,5.7,5.7,5.7h27.7c3.1,0,5.7-2.5,5.7-5.7V5.7C39.1,2.5,36.5,0,33.4,0L33.4,0z
				"/>
		</g>
	</g>
	<path fill="#A6A7A7" d="M22.5,19.7l4-4l0.2-0.2c0,0,0,0,0,0c0.6-0.8,0.6-1.9-0.1-2.6c-0.4-0.4-0.9-0.6-1.4-0.6
		c-0.5,0-0.9,0.2-1.3,0.5c0,0,0,0,0,0l-4.2,4.2c0,0,0,0,0,0c0,0,0,0,0,0l0,0c-0.1,0.1-0.2,0.1-0.3,0l0,0l0,0c0,0,0,0,0,0l-4.2-4.2
		c0,0,0,0,0,0c-0.3-0.3-0.8-0.5-1.2-0.5c-0.5,0-1,0.2-1.4,0.6c-0.7,0.7-0.8,1.9-0.1,2.7c0,0,0,0,0,0l4.2,4.2c0,0,0,0,0,0l0,0l0,0
		c0.1,0.1,0.1,0.2,0,0.3l0,0c0,0,0,0,0,0l-4,4l-0.2,0.2c0,0,0,0,0,0c-0.6,0.8-0.6,1.9,0.1,2.6c0.4,0.4,0.9,0.6,1.4,0.6
		c0.5,0,1-0.2,1.4-0.6l4.2-4.1c0,0,0,0,0,0c0,0,0,0,0,0c0.1-0.1,0.2-0.1,0.3,0c0,0,0,0,0,0l4.2,4.2c0,0,0,0,0,0
		c0.3,0.3,0.8,0.5,1.3,0.5l0,0c0.5,0,1-0.2,1.4-0.6c0.8-0.8,0.8-2,0-2.7l-4.1-4.1c0,0,0,0,0,0c0,0,0,0,0,0c0,0,0,0,0,0
		C22.3,19.9,22.4,19.8,22.5,19.7C22.4,19.7,22.5,19.7,22.5,19.7z"/>
</g>
</svg>
