<?xml version="1.0" encoding="utf-8"?>
<!-- Generator: Adobe Illustrator 17.1.0, SVG Export Plug-In . SVG Version: 6.00 Build 0)  -->
<!DOCTYPE svg PUBLIC "-//W3C//DTD SVG 1.1//EN" "http://www.w3.org/Graphics/SVG/1.1/DTD/svg11.dtd">
<svg version="1.1" id="Layer_1" xmlns="http://www.w3.org/2000/svg" xmlns:xlink="http://www.w3.org/1999/xlink" x="0px" y="0px"
	 viewBox="0 0 23.6 16.7" enable-background="new 0 0 23.6 16.7" xml:space="preserve">
<g id="Rounded_Rectangle_1_41_">
	<g>
		<path fill="#4E4F50" d="M18.7,5L18.7,5L18.7,5C18.6,4.9,18.6,5,18.7,5C18.6,5,18.6,5,18.7,5z M18.7,7L18.7,7
			C18.6,7,18.6,6.9,18.7,7c-0.1-0.1-0.1-0.1-0.1-0.1L18.7,7z M20.6,5.7l-0.5,2.1c0.9,0.7,1.5,1.8,1.5,3c0,2.2-1.8,3.9-3.9,3.9h-6.9
			c-2.2,0-3.9-1.8-3.9-3.9c0-2.2,1.8-3.9,3.9-3.9h3.9v-2h-3.9c-3.3,0-5.9,2.6-5.9,5.9c0,3.3,2.6,5.9,5.9,5.9h6.9
			c3.3,0,5.9-2.6,5.9-5.9C23.6,8.6,22.4,6.7,20.6,5.7z M5.9,2h6.9c1.8,0,3.4,1.3,3.8,2.9c0.1,0.3,0.1,0.6,0.1,1c0,0.3-0.1,0.7-0.1,1
			c-0.4,1.7-2,2.9-3.8,2.9H8.8v2h3.9c2.9,0,5.3-2.1,5.8-4.8l-0.1-0.1c0,0,0.1,0,0.1,0.1c0.1-0.3,0.1-0.7,0.1-1c0-0.3,0-0.6-0.1-0.9
			c-0.1,0-0.1,0-0.2,0V4.9h0.2C18.1,2.1,15.7,0,12.8,0H5.9C2.6,0,0,2.6,0,5.9C0,8.1,1.2,10,3,11l0.5-2.1C2.5,8.2,2,7.1,2,5.9
			C2,3.7,3.7,2,5.9,2z"/>
	</g>
</g>
</svg>
