<?xml version="1.0" encoding="utf-8"?>
<!-- Generator: Adobe Illustrator 17.1.0, SVG Export Plug-In . SVG Version: 6.00 Build 0)  -->
<!DOCTYPE svg PUBLIC "-//W3C//DTD SVG 1.1//EN" "http://www.w3.org/Graphics/SVG/1.1/DTD/svg11.dtd">
<svg version="1.1" id="Layer_1" xmlns="http://www.w3.org/2000/svg" xmlns:xlink="http://www.w3.org/1999/xlink" x="0px" y="0px"
	 viewBox="0 0 24.5 16.8" enable-background="new 0 0 24.5 16.8" xml:space="preserve">
<g id="Rounded_Rectangle_2_5_">
	<g>
		<path fill="#909090" d="M2.7,0H0.4C0.2,0,0,0.2,0,0.4v2.3c0,0.2,0.2,0.4,0.4,0.4h2.3c0.2,0,0.4-0.2,0.4-0.4V0.4
			C3.1,0.2,2.9,0,2.7,0z M24.1,0H6.9C6.7,0,6.5,0.2,6.5,0.4v2.3c0,0.2,0.2,0.4,0.4,0.4h17.2c0.2,0,0.4-0.2,0.4-0.4V0.4
			C24.5,0.2,24.3,0,24.1,0z M2.7,6.9H0.4C0.2,6.9,0,7.1,0,7.3v2.3c0,0.2,0.2,0.4,0.4,0.4h2.3c0.2,0,0.4-0.2,0.4-0.4V7.3
			C3.1,7.1,2.9,6.9,2.7,6.9z M24.1,6.9H6.9c-0.2,0-0.4,0.2-0.4,0.4v2.3c0,0.2,0.2,0.4,0.4,0.4h17.2c0.2,0,0.4-0.2,0.4-0.4V7.3
			C24.5,7.1,24.3,6.9,24.1,6.9z M2.7,13.8H0.4c-0.2,0-0.4,0.2-0.4,0.4v2.3c0,0.2,0.2,0.4,0.4,0.4h2.3c0.2,0,0.4-0.2,0.4-0.4v-2.3
			C3.1,13.9,2.9,13.8,2.7,13.8z M24.1,13.8H6.9c-0.2,0-0.4,0.2-0.4,0.4v2.3c0,0.2,0.2,0.4,0.4,0.4h17.2c0.2,0,0.4-0.2,0.4-0.4v-2.3
			C24.5,13.9,24.3,13.8,24.1,13.8z"/>
	</g>
</g>
</svg>
