<?xml version="1.0" encoding="utf-8"?>
<!-- Generator: Adobe Illustrator 17.1.0, SVG Export Plug-In . SVG Version: 6.00 Build 0)  -->
<!DOCTYPE svg PUBLIC "-//W3C//DTD SVG 1.1//EN" "http://www.w3.org/Graphics/SVG/1.1/DTD/svg11.dtd">
<svg version="1.1" id="Layer_1" xmlns="http://www.w3.org/2000/svg" xmlns:xlink="http://www.w3.org/1999/xlink" x="0px" y="0px"
	 viewBox="0 0 28.2 29.3" enable-background="new 0 0 28.2 29.3" xml:space="preserve">
<path fill="#FFFFFF" d="M9.3,27.9c-3.5,0-6-2.2-6-4.9c0-2.6,3.1-4.8,6.6-4.7c0.8,0,1.6,0.1,2.3,0.4c1.9,1.3,3.2,2.1,3.6,3.6
	c0.1,0.3,0.1,0.6,0.1,0.9C15.9,25.8,14.2,27.9,9.3,27.9 M10.2,12.3c-2.3-0.1-4.6-2.6-5-5.7C4.8,3.6,6.4,1.2,8.7,1.3
	c2.3,0.1,4.6,2.5,5,5.6C14.1,10,12.5,12.4,10.2,12.3 M15,16.9c-0.8-0.6-2.4-2-2.4-2.8c0-1,0.3-1.5,1.7-2.6c1.5-1.2,2.6-2.8,2.6-4.7
	c0-2.3-1-4.5-2.9-5.2h2.9l2-1.5H9.9C5.8,0,2,3.1,2,6.7c0,3.7,2.8,6.6,6.9,6.6c0.3,0,0.6,0,0.8,0c-0.3,0.5-0.5,1.1-0.5,1.7
	c0,1,0.5,1.8,1.2,2.5c-0.5,0-1,0-1.6,0c-5,0-8.9,3.2-8.9,6.5c0,3.3,4.3,5.3,9.3,5.3c5.7,0,8.9-3.3,8.9-6.5
	C18.2,20.1,17.4,18.6,15,16.9 M28.2,12.6h-3.5V9.1h-2.8v3.5h-3.5v2.8h3.5V19h2.8v-3.5h3.5V12.6z"/>
</svg>
