<?xml version="1.0" encoding="utf-8"?>
<!-- Generator: Adobe Illustrator 17.1.0, SVG Export Plug-In . SVG Version: 6.00 Build 0)  -->
<!DOCTYPE svg PUBLIC "-//W3C//DTD SVG 1.1//EN" "http://www.w3.org/Graphics/SVG/1.1/DTD/svg11.dtd">
<svg version="1.1" id="Layer_1" xmlns="http://www.w3.org/2000/svg" xmlns:xlink="http://www.w3.org/1999/xlink" x="0px" y="0px"
	 viewBox="0 0 20.5 19.7" enable-background="new 0 0 20.5 19.7" xml:space="preserve">
<g id="Rectangle_4_7_">
	<g>
		<path fill="#FFFFFF" d="M20.5,18.7L14,12.6c1-1.3,1.6-3,1.6-4.8c0-4.3-3.5-7.8-7.8-7.8C3.5,0,0,3.5,0,7.8c0,4.3,3.5,7.8,7.8,7.8
			c1.9,0,3.7-0.7,5-1.8l6.5,5.9L20.5,18.7z M0.8,7.8c0-3.9,3.1-7,7-7c3.9,0,7,3.1,7,7c0,3.9-3.1,7-7,7C3.9,14.8,0.8,11.7,0.8,7.8z"
			/>
	</g>
</g>
</svg>
