<?xml version="1.0" encoding="utf-8"?>
<!-- Generator: Adobe Illustrator 17.1.0, SVG Export Plug-In . SVG Version: 6.00 Build 0)  -->
<!DOCTYPE svg PUBLIC "-//W3C//DTD SVG 1.1//EN" "http://www.w3.org/Graphics/SVG/1.1/DTD/svg11.dtd">
<svg version="1.1" id="Layer_1" xmlns="http://www.w3.org/2000/svg" xmlns:xlink="http://www.w3.org/1999/xlink" x="0px" y="0px"
	 viewBox="0 0 17.7 24.5" enable-background="new 0 0 17.7 24.5" xml:space="preserve">
<g id="Rounded_Rectangle_2_31_">
	<g>
		<path fill="#4E4F50" d="M16.4,2.9h-3.7V2c0-1.1-0.9-2-2-2H6.9c-1.1,0-2,0.9-2,2v1H1.2H0v1h1.3l1.2,18.7c0,1.1,0.9,2,2,2h8.8
			c1.1,0,2-0.9,2-2l1.2-18.7h1.3v-1H16.4z M5.9,2c0-0.5,0.4-1,1-1h3.9c0.5,0,1,0.4,1,1v1H5.9V2z M14.2,22.6c0,0.5-0.4,1-1,1H4.4
			c-0.5,0-1-0.4-1-1L2.2,3.9h13.3L14.2,22.6z M9.3,5.9h-1v15.7h1V5.9z M12.8,5.9h-1l-0.5,15.7h1L12.8,5.9z M6.4,21.6L5.9,5.9h-1
			l0.5,15.7H6.4z"/>
	</g>
</g>
</svg>
