<?xml version="1.0" encoding="utf-8"?>
<!-- Generator: Adobe Illustrator 17.1.0, SVG Export Plug-In . SVG Version: 6.00 Build 0)  -->
<!DOCTYPE svg PUBLIC "-//W3C//DTD SVG 1.1//EN" "http://www.w3.org/Graphics/SVG/1.1/DTD/svg11.dtd">
<svg version="1.1" id="Layer_1" xmlns="http://www.w3.org/2000/svg" xmlns:xlink="http://www.w3.org/1999/xlink" x="0px" y="0px"
	 viewBox="0 0 24.5 24.5" enable-background="new 0 0 24.5 24.5" xml:space="preserve">
<g id="Ellipse_3_5_">
	<g>
		<path fill="#4E4F50" d="M12.3,0C5.5,0,0,5.5,0,12.3C0,19,5.5,24.5,12.3,24.5c6.8,0,12.3-5.5,12.3-12.3C24.5,5.5,19,0,12.3,0z
			 M19.5,20.9c-0.8-0.4-3.4-0.9-4-1.3c-0.7-0.5-0.5-2.9-0.5-2.9l0.5-0.4c0,0,0.1-1.1,0.3-1.5c0.5-0.9,1-2.5,1-2.5s0.5-0.4,0.5-1
			s-0.5-1-0.5-1S17,8.6,17,7.4c0-2.5-1.6-3.9-4.5-3.9c-2.9,0-4.9,1.2-4.9,3.9c0,1.2,0.4,2.9,0.4,2.9s-0.5,0.4-0.5,1s0.5,1,0.5,1
			s0.6,1.8,1,2.5c0.2,0.4,0.3,1.5,0.3,1.5l0.5,0.4c0,0,0.2,2.5-0.5,2.9c-0.7,0.4-3.4,1-4.1,1.3c0,0,1.7,1.5,4.2,2.2
			C4.5,21.9,1,17.5,1,12.3C1,6,6,1,12.3,1C18.5,1,23.6,6,23.6,12.3C23.6,15.8,22,18.9,19.5,20.9z M10,23.3c0,0-0.1,0-0.1,0
			C9.9,23.3,10,23.3,10,23.3z"/>
	</g>
</g>
</svg>
