<?xml version="1.0" encoding="utf-8"?>
<!-- Generator: Adobe Illustrator 17.1.0, SVG Export Plug-In . SVG Version: 6.00 Build 0)  -->
<!DOCTYPE svg PUBLIC "-//W3C//DTD SVG 1.1//EN" "http://www.w3.org/Graphics/SVG/1.1/DTD/svg11.dtd">
<svg version="1.1" id="Layer_1" xmlns="http://www.w3.org/2000/svg" xmlns:xlink="http://www.w3.org/1999/xlink" x="0px" y="0px"
	 viewBox="0 0 24.5 24.5" enable-background="new 0 0 24.5 24.5" xml:space="preserve">
<g id="Ellipse_1_31_">
	<g>
		<path fill="#4E4F50" d="M17.2,12.8h-4.4v4.4c1.2,0.1,2.5,0.3,3.6,0.6C16.8,16.4,17.1,14.8,17.2,12.8z M8,17.7
			c1.2-0.3,2.4-0.5,3.7-0.6v-4.4H7.4C7.4,14.8,7.7,16.4,8,17.7z M7.4,11.8h4.4V7.3c-1.4,0-2.7-0.2-3.7-0.5C7.7,8.2,7.4,9.8,7.4,11.8
			z M16.4,6.8c-1.1,0.3-2.3,0.5-3.6,0.5v4.4h4.4C17.1,9.8,16.8,8.2,16.4,6.8z M19.3,4.8c-1.4-1.3-3.1-2.2-5-2.6
			c0.8,0.8,1.8,1.9,2.5,3.6C18,5.5,18.8,5.1,19.3,4.8z M18.1,11.8h4.4c-0.1-2.4-1.1-4.6-2.6-6.3c-0.6,0.3-1.6,0.8-2.8,1.2
			C17.7,8,18.1,9.7,18.1,11.8z M13.3,2C13.2,2,13,2,12.8,2v4.4c1.3,0,2.4-0.2,3.3-0.4C15.3,4.1,14.2,2.8,13.3,2z M8.3,6
			c1,0.2,2.1,0.4,3.5,0.4V2c-0.3,0-0.6,0-1,0.1C10,2.8,9,4,8.3,6z M9.8,2.3C8,2.7,6.5,3.6,5.2,4.8c0.5,0.3,1.2,0.7,2.3,1
			C8.2,4.1,9,3,9.8,2.3z M12.3,0C5.5,0,0,5.5,0,12.3C0,19,5.5,24.5,12.3,24.5c6.8,0,12.3-5.5,12.3-12.3C24.5,5.5,19,0,12.3,0z
			 M20.9,19.6l-0.7,0.7c0,0,0,0,0,0c-1.9,1.8-4.5,3-7.3,3.2c0,0-0.1,0-0.1,0h-1c0,0,0,0-0.1,0c-2.9-0.1-5.6-1.4-7.5-3.4l0,0l0,0
			c0,0,0,0,0,0l-0.7-0.7c0,0,0,0,0.1,0C1.9,17.4,1,15,1,12.3c0-2.8,1-5.4,2.7-7.3c0,0,0,0,0,0l0.4-0.4c0,0,0,0,0,0l0.3-0.3
			c0,0,0,0,0,0c1.9-1.8,4.4-3,7.3-3.2c0,0,0.1,0,0.1,0h1c0,0,0,0,0.1,0c2.8,0.1,5.4,1.3,7.3,3.2c0,0,0,0,0,0l0.7,0.7c0,0,0,0,0,0
			c1.7,2,2.7,4.5,2.7,7.3C23.6,15.1,22.5,17.6,20.9,19.6C20.8,19.6,20.9,19.6,20.9,19.6z M10.8,22.5c0.3,0,0.6,0.1,1,0.1v-4.4
			c-1.2,0-2.4,0.2-3.4,0.5C9,20.6,10,21.7,10.8,22.5z M12.8,18.2v4.4c0.2,0,0.4,0,0.6-0.1c0.8-0.7,1.9-1.9,2.6-3.8
			C15,18.4,13.9,18.2,12.8,18.2z M17.1,18c1.1,0.4,2.1,0.8,2.8,1.1c1.5-1.7,2.5-3.9,2.6-6.4h-4.4C18.1,14.9,17.7,16.6,17.1,18z
			 M14.3,22.3c1.8-0.4,3.5-1.2,4.8-2.5c-0.6-0.3-1.4-0.6-2.4-0.9C16,20.5,15.1,21.6,14.3,22.3z M7.2,6.6c-1.1-0.4-2-0.8-2.6-1.1
			C3.1,7.2,2.1,9.4,2,11.8h4.4C6.4,9.7,6.7,8,7.2,6.6z M5.2,19.7c1.3,1.2,2.9,2.1,4.6,2.6c-0.8-0.7-1.6-1.8-2.3-3.4
			C6.6,19.2,5.7,19.5,5.2,19.7z M6.4,12.8H2c0.1,2.4,1,4.5,2.4,6.2c0.7-0.3,1.6-0.6,2.8-1C6.8,16.6,6.4,14.9,6.4,12.8z"/>
	</g>
</g>
</svg>
